<svg width="220" height="220" viewBox="0 0 220 220" fill="none" xmlns="http://www.w3.org/2000/svg">
  <rect width="220" height="220" rx="34" fill="#FFF9FD"/>
  <path d="M48 56C58 126 82 164 110 164C138 164 162 126 172 56" stroke="#2B1B2F" stroke-width="7" stroke-linecap="round"/>
  <path d="M62 66C72 112 90 139 110 139C130 139 148 112 158 66" stroke="#D24BD6" stroke-width="5" stroke-linecap="round"/>
  <circle cx="58" cy="79" r="8" fill="#F8D78B" stroke="#2B1B2F" stroke-width="4"/>
  <circle cx="70" cy="112" r="8" fill="#F8D78B" stroke="#2B1B2F" stroke-width="4"/>
  <circle cx="89" cy="140" r="8" fill="#F8D78B" stroke="#2B1B2F" stroke-width="4"/>
  <circle cx="131" cy="140" r="8" fill="#F8D78B" stroke="#2B1B2F" stroke-width="4"/>
  <circle cx="150" cy="112" r="8" fill="#F8D78B" stroke="#2B1B2F" stroke-width="4"/>
  <circle cx="162" cy="79" r="8" fill="#F8D78B" stroke="#2B1B2F" stroke-width="4"/>
  <path d="M110 135L132 160L110 188L88 160L110 135Z" fill="#76D7E8" stroke="#2B1B2F" stroke-width="6" stroke-linejoin="round"/>
  <path d="M100 158H120" stroke="#FFFFFF" stroke-width="5" stroke-linecap="round"/>
</svg>
